<svg xmlns="http://www.w3.org/2000/svg" viewBox="0 0 80 80" width="80" height="80">
  <g transform="scale(0.09125) translate(-75,-75)" fill="none" stroke="#5a4a2f" stroke-width="20" stroke-linejoin="round" stroke-linecap="round">
    <path d="M0,0 L540,0 L545,3 L548,8 L549,12 L549,57 L546,64 L540,69 L537,70 L380,71 L359,74 L338,79 L322,86 L313,92 L307,97 L301,107 L298,117 L297,169 L296,246 L293,255 L287,262 L279,266 L275,267 L266,267 L255,263 L248,256 L245,250 L244,232 L242,119 L240,110 L234,100 L229,94 L219,87 L204,80 L187,75 L170,72 L159,71 L2,70 L-4,67 L-8,62 L-9,58 L-9,11 L-6,5 Z" transform="translate(242,565)"/>
    <path d="M0,0 L11,1 L35,8 L57,17 L77,28 L96,41 L112,54 L135,77 L146,91 L160,111 L170,129 L180,150 L189,175 L196,203 L199,222 L0,222 Z" transform="translate(559,314)"/>
    <path d="M0,0 L2,0 L2,223 L-197,223 L-196,213 L-190,186 L-184,166 L-174,142 L-161,117 L-151,102 L-139,86 L-126,71 L-110,55 L-99,46 L-81,33 L-60,21 L-43,13 L-24,6 Z" transform="translate(463,313)"/>
    <path d="M0,0 L43,0 L45,11 L53,61 L62,109 L71,149 L72,158 L55,171 L32,187 L15,199 L-5,213 L-23,225 L-25,225 L-34,210 L-45,196 L-59,182 L-73,171 L-87,162 L-112,149 L-137,140 L-159,134 L-159,63 L-148,70 L-134,77 L-115,82 L-100,84 L-83,84 L-68,82 L-53,78 L-37,70 L-27,62 L-17,52 L-10,41 L-5,30 L-1,14 Z" transform="translate(726,663)"/>
    <path d="M0,0 L43,0 L45,18 L49,32 L57,47 L65,57 L75,66 L86,73 L97,78 L116,83 L124,84 L144,84 L160,82 L177,77 L191,70 L199,64 L201,64 L201,134 L175,141 L154,149 L138,157 L124,165 L110,175 L96,187 L85,199 L74,214 L68,224 L64,223 L46,211 L26,197 L3,181 L-15,168 L-29,158 L-30,156 L-24,132 L-14,84 L-4,27 Z" transform="translate(255,663)"/>
    <path d="M0,0 L1,2 L-5,18 L-11,42 L-14,60 L-15,70 L-15,99 L-13,118 L-8,138 L-2,154 L7,171 L19,187 L30,199 L42,210 L57,221 L74,232 L96,244 L106,249 L104,253 L93,267 L81,285 L70,304 L58,329 L52,345 L49,346 L27,335 L8,323 L-5,313 L-19,301 L-33,287 L-42,276 L-53,261 L-63,244 L-71,225 L-77,205 L-81,180 L-81,146 L-78,127 L-73,106 L-65,84 L-53,61 L-41,43 L-32,32 L-23,22 L-8,7 Z" transform="translate(200,125)"/>
    <path d="M0,0 L7,6 L17,15 L30,28 L39,39 L51,56 L60,72 L69,91 L77,116 L81,137 L82,147 L82,179 L78,204 L73,222 L65,241 L57,256 L49,268 L38,282 L27,294 L17,304 L6,313 L-7,323 L-28,336 L-43,344 L-48,346 L-51,346 L-61,321 L-69,305 L-78,288 L-90,270 L-103,253 L-105,249 L-82,237 L-65,227 L-48,215 L-38,207 L-28,198 L-16,185 L-5,169 L3,155 L10,136 L15,115 L16,106 L16,70 L13,46 L7,22 L1,4 Z" transform="translate(823,125)"/>
    <path d="M0,0 L12,0 L20,5 L23,10 L23,266 L-12,266 L-12,16 L-10,8 L-6,3 Z" transform="translate(506,270)"/>
  </g>
</svg>