<svg xmlns="http://www.w3.org/2000/svg" viewBox="0 0 80 80" width="80" height="80">
  
<g transform="scale (1.23) translate(-6.5,-8)">
  <!-- Flame -->
  <path d="M40 14
           Q48 24 40 34
           Q32 24 40 14 Z" fill="none" stroke="#5a4a2f" stroke-width="2.2" stroke-linejoin="round"></path>
  <!-- Candle -->
  <path d="M30 34 L30 61.7 L50 61.7 L50 34 Z" fill="none" stroke="#5a4a2f" stroke-width="2.8" stroke-linejoin="round"></path>
  <!-- Drips -->
  <path d="M36 34 L36 46" fill="none" stroke="#5a4a2f" stroke-width="1.6" stroke-linecap="round"></path>
  <path d="M44 34 L44 42" fill="none" stroke="#5a4a2f" stroke-width="1.6" stroke-linecap="round"></path>
  <!-- Base -->
  <path d="M24 62 L56 62" fill="none" stroke="#5a4a2f" stroke-width="2.4" stroke-linecap="round"></path>

<!-- Candle 2 -->
  <g transform="scale(0.8) translate(-13,15.5)">
  <!-- Flame -->
  <path d="M40 14
           Q48 24 40 34
           Q32 24 40 14 Z" fill="none" stroke="#5a4a2f" stroke-width="2.2" stroke-linejoin="round"></path>
  <!-- Candle -->
  <path d="M30 34 L30 61.7 L50 61.7 L50 34 Z" fill="none" stroke="#5a4a2f" stroke-width="2.8" stroke-linejoin="round"></path>
  <!-- Drips -->
  <path d="M36 34 L36 46" fill="none" stroke="#5a4a2f" stroke-width="1.6" stroke-linecap="round"></path>
  <path d="M44 34 L44 42" fill="none" stroke="#5a4a2f" stroke-width="1.6" stroke-linecap="round"></path>
  </g>
  <g transform="translate(-16)">
  <!-- Base -->
  <path d="M24 62 L56 62" fill="none" stroke="#5a4a2f" stroke-width="2.4" stroke-linecap="round"></path>
  </g>

<!-- Candle 3 -->
  <g transform="scale(0.65) translate(47,32.5)">
  <!-- Flame -->
  <path d="M40 14
           Q48 24 40 34
           Q32 24 40 14 Z" fill="none" stroke="#5a4a2f" stroke-width="2.2" stroke-linejoin="round"></path>
  <!-- Candle -->
  <path d="M30 34 L30 61.7 L50 61.7 L50 34 Z" fill="none" stroke="#5a4a2f" stroke-width="3.5" stroke-linejoin="round"></path>
  <!-- Drips -->
  <path d="M36 34 L36 46" fill="none" stroke="#5a4a2f" stroke-width="1.6" stroke-linecap="round"></path>
  <path d="M44 34 L44 42" fill="none" stroke="#5a4a2f" stroke-width="1.6" stroke-linecap="round"></path>
  </g>
  <g transform="translate(14)">
  <!-- Base -->
  <path d="M24 62 L56 62" fill="none" stroke="#5a4a2f" stroke-width="2.4" stroke-linecap="round"></path>
  </g>
</g>  
</svg>