<svg xmlns="http://www.w3.org/2000/svg" viewBox="0 0 80 80" width="80" height="80">
  <!-- Book left page -->
  <path d="M40,20 L40,62 Q28,62 18,56 L18,20 Q28,18 40,20 Z" fill="none" stroke="#5a4a2f" stroke-width="2.2" stroke-linejoin="round"/>
  <!-- Book right page -->
  <path d="M40,20 L40,62 Q52,62 62,56 L62,20 Q52,18 40,20 Z" fill="none" stroke="#5a4a2f" stroke-width="2.2" stroke-linejoin="round"/>
  <!-- Spine -->
  <line x1="40" y1="20" x2="40" y2="62" stroke="#5a4a2f" stroke-width="1.5"/>
  <!-- Left page lines -->
  <line x1="24" y1="30" x2="37" y2="30" stroke="#5a4a2f" stroke-width="1.2" stroke-linecap="round"/>
  <line x1="24" y1="36" x2="37" y2="36" stroke="#5a4a2f" stroke-width="1.2" stroke-linecap="round"/>
  <line x1="24" y1="42" x2="37" y2="42" stroke="#5a4a2f" stroke-width="1.2" stroke-linecap="round"/>
  <!-- Right page: star -->
  <polygon points="51,27 53,33 59,33 54,37 56,43 51,39 46,43 48,37 43,33 49,33" fill="none" stroke="#5a4a2f" stroke-width="1.5" stroke-linejoin="round"/>
</svg>
