<svg xmlns="http://www.w3.org/2000/svg" viewBox="0 0 80 80" width="80" height="80">
  <!-- Outer wheel rim -->
  <circle cx="40" cy="40" r="28" fill="none" stroke="#5a4a2f" stroke-width="2.2"/>
  <!-- Inner hub -->
  <circle cx="40" cy="40" r="8" fill="none" stroke="#5a4a2f" stroke-width="2.2"/>
  <!-- Spokes - 8 -->
  <line x1="40" y1="32" x2="40" y2="14" stroke="#5a4a2f" stroke-width="1.8" stroke-linecap="round"/>
  <line x1="40" y1="48" x2="40" y2="66" stroke="#5a4a2f" stroke-width="1.8" stroke-linecap="round"/>
  <line x1="32" y1="40" x2="14" y2="40" stroke="#5a4a2f" stroke-width="1.8" stroke-linecap="round"/>
  <line x1="48" y1="40" x2="66" y2="40" stroke="#5a4a2f" stroke-width="1.8" stroke-linecap="round"/>
  <line x1="34.3" y1="34.3" x2="20.1" y2="20.1" stroke="#5a4a2f" stroke-width="1.8" stroke-linecap="round"/>
  <line x1="45.7" y1="45.7" x2="59.9" y2="59.9" stroke="#5a4a2f" stroke-width="1.8" stroke-linecap="round"/>
  <line x1="45.7" y1="34.3" x2="59.9" y2="20.1" stroke="#5a4a2f" stroke-width="1.8" stroke-linecap="round"/>
  <line x1="34.3" y1="45.7" x2="20.1" y2="59.9" stroke="#5a4a2f" stroke-width="1.8" stroke-linecap="round"/>
  <!-- Handle grips at outer rim (helm handles) -->
  <rect x="37" y="9" width="6" height="8" rx="3" fill="none" stroke="#5a4a2f" stroke-width="1.6"/>
  <rect x="37" y="63" width="6" height="8" rx="3" fill="none" stroke="#5a4a2f" stroke-width="1.6"/>
  <rect x="9" y="37" width="8" height="6" rx="3" fill="none" stroke="#5a4a2f" stroke-width="1.6"/>
  <rect x="63" y="37" width="8" height="6" rx="3" fill="none" stroke="#5a4a2f" stroke-width="1.6"/>
</svg>
